<mxfile host="app.diagrams.net" modified="2020-11-16T16:05:14.019Z" agent="5.0 (Windows NT 10.0; Win64; x64) AppleWebKit/537.36 (KHTML, like Gecko) Chrome/86.0.4240.198 Safari/537.36" etag="YdMwliCBxUAKKcNmUnNd" version="13.9.7" type="github">
  <diagram id="OdxlM5lSDOI7O76krd3z" name="Page-1">
    <mxGraphModel dx="1038" dy="523" grid="1" gridSize="10" guides="1" tooltips="1" connect="1" arrows="1" fold="1" page="1" pageScale="1" pageWidth="850" pageHeight="1100" math="0" shadow="0">
      <root>
        <mxCell id="0" />
        <mxCell id="1" parent="0" />
        <mxCell id="j8rQMb8WvZjdhmPUjPt_-9" value="" style="edgeStyle=orthogonalEdgeStyle;rounded=0;orthogonalLoop=1;jettySize=auto;html=1;startArrow=classic;startFill=1;entryX=0;entryY=0.5;entryDx=0;entryDy=0;" parent="1" source="j8rQMb8WvZjdhmPUjPt_-1" target="j8rQMb8WvZjdhmPUjPt_-3" edge="1">
          <mxGeometry relative="1" as="geometry">
            <mxPoint x="560" y="270" as="targetPoint" />
          </mxGeometry>
        </mxCell>
        <mxCell id="j8rQMb8WvZjdhmPUjPt_-1" value="RMCS" style="ellipse;whiteSpace=wrap;html=1;fillColor=#fff2cc;strokeColor=#d6b656;" parent="1" vertex="1">
          <mxGeometry x="360" y="230" width="120" height="80" as="geometry" />
        </mxCell>
        <mxCell id="j8rQMb8WvZjdhmPUjPt_-2" value="HVACA Management" style="rounded=0;whiteSpace=wrap;html=1;fillColor=#d5e8d4;strokeColor=#82b366;" parent="1" vertex="1">
          <mxGeometry x="80" y="240" width="120" height="60" as="geometry" />
        </mxCell>
        <mxCell id="j8rQMb8WvZjdhmPUjPt_-3" value="Customer Management" style="rounded=0;whiteSpace=wrap;html=1;fillColor=#d5e8d4;strokeColor=#82b366;" parent="1" vertex="1">
          <mxGeometry x="620" y="240" width="120" height="60" as="geometry" />
        </mxCell>
        <mxCell id="j8rQMb8WvZjdhmPUjPt_-11" style="edgeStyle=orthogonalEdgeStyle;rounded=0;orthogonalLoop=1;jettySize=auto;html=1;entryX=0.5;entryY=1;entryDx=0;entryDy=0;startArrow=classic;startFill=1;" parent="1" source="j8rQMb8WvZjdhmPUjPt_-4" target="j8rQMb8WvZjdhmPUjPt_-1" edge="1">
          <mxGeometry relative="1" as="geometry" />
        </mxCell>
        <mxCell id="j8rQMb8WvZjdhmPUjPt_-4" value="R&amp;amp;D DLP" style="rounded=0;whiteSpace=wrap;html=1;fillColor=#d5e8d4;strokeColor=#82b366;" parent="1" vertex="1">
          <mxGeometry x="360" y="430" width="120" height="60" as="geometry" />
        </mxCell>
        <mxCell id="j8rQMb8WvZjdhmPUjPt_-12" style="rounded=0;orthogonalLoop=1;jettySize=auto;html=1;entryX=0;entryY=1;entryDx=0;entryDy=0;startArrow=classic;startFill=1;" parent="1" source="j8rQMb8WvZjdhmPUjPt_-5" target="j8rQMb8WvZjdhmPUjPt_-1" edge="1">
          <mxGeometry relative="1" as="geometry" />
        </mxCell>
        <mxCell id="j8rQMb8WvZjdhmPUjPt_-5" value="Payment Management" style="rounded=0;whiteSpace=wrap;html=1;fillColor=#d5e8d4;strokeColor=#82b366;" parent="1" vertex="1">
          <mxGeometry x="170" y="360" width="120" height="60" as="geometry" />
        </mxCell>
        <mxCell id="j8rQMb8WvZjdhmPUjPt_-10" value="" style="rounded=0;orthogonalLoop=1;jettySize=auto;html=1;startArrow=classic;startFill=1;entryX=0.757;entryY=0.925;entryDx=0;entryDy=0;entryPerimeter=0;exitX=0;exitY=0.5;exitDx=0;exitDy=0;" parent="1" source="j8rQMb8WvZjdhmPUjPt_-6" target="j8rQMb8WvZjdhmPUjPt_-1" edge="1">
          <mxGeometry relative="1" as="geometry">
            <mxPoint x="620" y="310" as="targetPoint" />
          </mxGeometry>
        </mxCell>
        <mxCell id="j8rQMb8WvZjdhmPUjPt_-6" value="Complaints Management" style="rounded=0;whiteSpace=wrap;html=1;fillColor=#d5e8d4;strokeColor=#82b366;" parent="1" vertex="1">
          <mxGeometry x="550" y="340" width="120" height="60" as="geometry" />
        </mxCell>
        <mxCell id="j8rQMb8WvZjdhmPUjPt_-7" value="" style="endArrow=classic;startArrow=classic;html=1;exitX=1;exitY=0.5;exitDx=0;exitDy=0;entryX=0;entryY=0.5;entryDx=0;entryDy=0;" parent="1" source="j8rQMb8WvZjdhmPUjPt_-2" target="j8rQMb8WvZjdhmPUjPt_-1" edge="1">
          <mxGeometry width="50" height="50" relative="1" as="geometry">
            <mxPoint x="410" y="300" as="sourcePoint" />
            <mxPoint x="460" y="250" as="targetPoint" />
          </mxGeometry>
        </mxCell>
        <mxCell id="j8rQMb8WvZjdhmPUjPt_-18" style="edgeStyle=none;rounded=0;orthogonalLoop=1;jettySize=auto;html=1;entryX=0.703;entryY=0.005;entryDx=0;entryDy=0;entryPerimeter=0;startArrow=classic;startFill=1;" parent="1" source="j8rQMb8WvZjdhmPUjPt_-13" target="j8rQMb8WvZjdhmPUjPt_-1" edge="1">
          <mxGeometry relative="1" as="geometry" />
        </mxCell>
        <mxCell id="j8rQMb8WvZjdhmPUjPt_-13" value="Customer" style="verticalLabelPosition=bottom;html=1;verticalAlign=top;align=center;strokeColor=none;fillColor=#00BEF2;shape=mxgraph.azure.user;" parent="1" vertex="1">
          <mxGeometry x="410" y="80" width="47.5" height="50" as="geometry" />
        </mxCell>
        <mxCell id="j8rQMb8WvZjdhmPUjPt_-17" style="edgeStyle=none;rounded=0;orthogonalLoop=1;jettySize=auto;html=1;entryX=0.33;entryY=0.055;entryDx=0;entryDy=0;entryPerimeter=0;startArrow=classic;startFill=1;" parent="1" source="j8rQMb8WvZjdhmPUjPt_-16" target="j8rQMb8WvZjdhmPUjPt_-1" edge="1">
          <mxGeometry relative="1" as="geometry" />
        </mxCell>
        <mxCell id="j8rQMb8WvZjdhmPUjPt_-16" value="Technician" style="image;html=1;image=img/lib/clip_art/people/Construction_Worker_Man_128x128.png" parent="1" vertex="1">
          <mxGeometry x="210" y="110" width="70" height="70" as="geometry" />
        </mxCell>
        <mxCell id="j8rQMb8WvZjdhmPUjPt_-20" style="edgeStyle=none;rounded=0;orthogonalLoop=1;jettySize=auto;html=1;startArrow=classic;startFill=1;" parent="1" source="j8rQMb8WvZjdhmPUjPt_-19" target="j8rQMb8WvZjdhmPUjPt_-1" edge="1">
          <mxGeometry relative="1" as="geometry" />
        </mxCell>
        <mxCell id="j8rQMb8WvZjdhmPUjPt_-19" value="GPS mapping" style="shape=process;whiteSpace=wrap;html=1;backgroundOutline=1;" parent="1" vertex="1">
          <mxGeometry x="570" y="120" width="120" height="60" as="geometry" />
        </mxCell>
      </root>
    </mxGraphModel>
  </diagram>
</mxfile>
